# xmcd
#
# Track frame offsets:
#	150
#	11373
#	20473
#	34739
#	48605
#	69476
#	83041
#	98851
#	111793
#	131930
#	146615
#	174172
#	185957
#	208339
#	223133
#
# Disc length: 3296 seconds
#
# Revision: 0
# Processed by: cddbd v1.5.1PL2 Copyright (c) Steve Scherf et al.
# Submitted via: dBpowerAMP V4.0
#
DISCID=de0cde0f
DTITLE=Chicken Shack - OK Ken
DYEAR=1968
DGENRE=Blues
TTITLE0=Baby´s Got Me Crying
TTITLE1=The Right Way Is My Way
TTITLE2=Get Like Used To Be
TTITLE3=Pony And Trap
TTITLE4=Tell Me
TTITLE5=A Woman is the Blues
TTITLE6=I Wanna See My Baby
TTITLE7=Remington Ride
TTITLE8=Fishing In Your River
TTITLE9=Mean Old World
TTITLE10=Sweet Sixteen
TTITLE11=Worried About My Woman (Bonus)
TTITLE12=Six Nights in Seven (Bonus)
TTITLE13=I´d Rather Go Blind (Bonus)
TTITLE14=Night Life (Bonus
EXTD=
EXTT0=
EXTT1=
EXTT2=
EXTT3=
EXTT4=
EXTT5=
EXTT6=
EXTT7=
EXTT8=
EXTT9=
EXTT10=
EXTT11=
EXTT12=
EXTT13=
EXTT14=
PLAYORDER=
